#Comment line ignore any data following # character 
#Hierarchical Translation and Rotation (.htr) file 
[Header]	
#Header keywords are followed by a single value 
FileType HTR		#Single word string
DataType HTRS		#Translation followed by rotation and scale data
FileVersion 1		#integer
NumSegments 64		#integer
NumFrames 3		#integer
DataFrameRate 30		#integer, data frame rate in this file
EulerRotationOrder ZYX
CalibrationUnits mm
RotationUnits Degrees
GlobalAxisofGravity Y
BoneLengthAxis Y
ScaleFactor 1.00
[SegmentNames&Hierarchy]
#CHILD	PARENT
Pinger_Root GLOBAL
Pelvis Pinger_Root
L_Hip Pelvis
R_Hip Pelvis
Rear_Leg01 Pelvis
Spine1 Pelvis
L_Leg01 L_Hip
L_Leg02 L_Leg01
L_Leg03 L_Leg02
L_Foot L_Leg03
L_Toe1_01 L_Foot
L_Toe2_01 L_Foot
L_Toe3_01 L_Foot
planeAlignerLeft L_Foot
L_Toe1_02 L_Toe1_01
L_Toe1_03 L_Toe1_02
L_Toe2_02 L_Toe2_01
L_Toe2_03 L_Toe2_02
L_Toe3_02 L_Toe3_01
L_Toe3_03 L_Toe3_02
planeLockWeightLeft planeAlignerLeft
R_Leg01 R_Hip
R_Leg02 R_Leg01
R_Leg03 R_Leg02
R_Foot R_Leg03
planeAlignerRight R_Foot
R_Toe1_01 R_Foot
R_Toe2_01 R_Foot
R_Toe3_01 R_Foot
planeLockWeightRight planeAlignerRight
R_Toe1_02 R_Toe1_01
R_Toe1_03 R_Toe1_02
R_Toe2_02 R_Toe2_01
R_Toe2_03 R_Toe2_02
R_Toe3_02 R_Toe3_01
R_Toe3_03 R_Toe3_02
Rear_Leg02 Rear_Leg01
Rear_Leg03 Rear_Leg02
Rear_Leg04 Rear_Leg03
Rear_Foot Rear_Leg04
planeAlignerCenter Rear_Foot
Rear_Toe1_01 Rear_Foot
Rear_Toe2_01 Rear_Foot
Rear_Toe3_01 Rear_Foot
planeLockWeightCenter planeAlignerCenter
Rear_Toe1_02 Rear_Toe1_01
Rear_Toe1_03 Rear_Toe1_02
Rear_Toe2_02 Rear_Toe2_01
Rear_Toe2_03 Rear_Toe2_02
Rear_Toe3_02 Rear_Toe3_01
Rear_Toe3_03 Rear_Toe3_02
Back_Bone Spine1
Head Spine1
Motor_Bone Back_Bone
Ping_Mechanism Back_Bone
BN_LookIK Head
bottomMouth Head
L_Mouth01 Head
L_mouthFront Head
mouthGun Head
R_Mouth01 Head
R_mouthFront Head
TopMouth Head
weapon_bone Head
[BasePosition]
#SegmentName Tx, Ty, Tz, Rx, Ry, Rz, BoneLength
Pinger_Root 0.000000 0.000000 0.000000 -90.000000 0.000000 0.000000 10.000000 
Pelvis 0.000000 0.000000 0.000000 0.000000 0.000000 0.000000 10.000000 
L_Hip 0.000000 0.000000 0.000000 0.000000 0.000000 0.000000 10.000000 
R_Hip 0.000000 0.000000 0.000000 0.000000 0.000000 0.000000 10.000000 
Rear_Leg01 0.000000 0.000000 0.000000 0.000000 0.000000 0.000000 10.000000 
Spine1 0.000000 0.000000 0.000000 0.000000 0.000000 0.000000 10.000000 
L_Leg01 0.000000 0.000000 0.000000 0.000000 0.000000 0.000000 10.000000 
L_Leg02 0.000000 0.000000 0.000000 0.000000 0.000000 0.000000 10.000000 
L_Leg03 0.000000 0.000000 0.000000 0.000000 0.000000 0.000000 10.000000 
L_Foot 0.000000 0.000000 0.000000 0.000000 0.000000 0.000000 10.000000 
L_Toe1_01 0.000000 0.000000 0.000000 0.000000 0.000000 0.000000 10.000000 
L_Toe2_01 0.000000 0.000000 0.000000 0.000000 0.000000 0.000000 10.000000 
L_Toe3_01 0.000000 0.000000 0.000000 0.000000 0.000000 0.000000 10.000000 
planeAlignerLeft 0.000000 0.000000 0.000000 0.000000 0.000000 0.000000 10.000000 
L_Toe1_02 0.000000 0.000000 0.000000 0.000000 0.000000 0.000000 10.000000 
L_Toe1_03 0.000000 0.000000 0.000000 0.000000 0.000000 0.000000 10.000000 
L_Toe2_02 0.000000 0.000000 0.000000 0.000000 0.000000 0.000000 10.000000 
L_Toe2_03 0.000000 0.000000 0.000000 0.000000 0.000000 0.000000 10.000000 
L_Toe3_02 0.000000 0.000000 0.000000 0.000000 0.000000 0.000000 10.000000 
L_Toe3_03 0.000000 0.000000 0.000000 0.000000 0.000000 0.000000 10.000000 
planeLockWeightLeft 0.000000 0.000000 0.000000 0.000000 0.000000 0.000000 10.000000 
R_Leg01 0.000000 0.000000 0.000000 0.000000 0.000000 0.000000 10.000000 
R_Leg02 0.000000 0.000000 0.000000 0.000000 0.000000 0.000000 10.000000 
R_Leg03 0.000000 0.000000 0.000000 0.000000 0.000000 0.000000 10.000000 
R_Foot 0.000000 0.000000 0.000000 0.000000 0.000000 0.000000 10.000000 
planeAlignerRight 0.000000 0.000000 0.000000 0.000000 0.000000 0.000000 10.000000 
R_Toe1_01 0.000000 0.000000 0.000000 0.000000 0.000000 0.000000 10.000000 
R_Toe2_01 0.000000 0.000000 0.000000 0.000000 0.000000 0.000000 10.000000 
R_Toe3_01 0.000000 0.000000 0.000000 0.000000 0.000000 0.000000 10.000000 
planeLockWeightRight 0.000000 0.000000 0.000000 0.000000 0.000000 0.000000 10.000000 
R_Toe1_02 0.000000 0.000000 0.000000 0.000000 0.000000 0.000000 10.000000 
R_Toe1_03 0.000000 0.000000 0.000000 0.000000 0.000000 0.000000 10.000000 
R_Toe2_02 0.000000 0.000000 0.000000 0.000000 0.000000 0.000000 10.000000 
R_Toe2_03 0.000000 0.000000 0.000000 0.000000 0.000000 0.000000 10.000000 
R_Toe3_02 0.000000 0.000000 0.000000 0.000000 0.000000 0.000000 10.000000 
R_Toe3_03 0.000000 0.000000 0.000000 0.000000 0.000000 0.000000 10.000000 
Rear_Leg02 0.000000 0.000000 0.000000 0.000000 0.000000 0.000000 10.000000 
Rear_Leg03 0.000000 0.000000 0.000000 0.000000 0.000000 0.000000 10.000000 
Rear_Leg04 0.000000 0.000000 0.000000 0.000000 0.000000 0.000000 10.000000 
Rear_Foot 0.000000 0.000000 0.000000 0.000000 0.000000 0.000000 10.000000 
planeAlignerCenter 0.000000 0.000000 0.000000 0.000000 0.000000 0.000000 10.000000 
Rear_Toe1_01 0.000000 0.000000 0.000000 0.000000 0.000000 0.000000 10.000000 
Rear_Toe2_01 0.000000 0.000000 0.000000 0.000000 0.000000 0.000000 10.000000 
Rear_Toe3_01 0.000000 0.000000 0.000000 0.000000 0.000000 0.000000 10.000000 
planeLockWeightCenter 0.000000 0.000000 0.000000 0.000000 0.000000 0.000000 10.000000 
Rear_Toe1_02 0.000000 0.000000 0.000000 0.000000 0.000000 0.000000 10.000000 
Rear_Toe1_03 0.000000 0.000000 0.000000 0.000000 0.000000 0.000000 10.000000 
Rear_Toe2_02 0.000000 0.000000 0.000000 0.000000 0.000000 0.000000 10.000000 
Rear_Toe2_03 0.000000 0.000000 0.000000 0.000000 0.000000 0.000000 10.000000 
Rear_Toe3_02 0.000000 0.000000 0.000000 0.000000 0.000000 0.000000 10.000000 
Rear_Toe3_03 0.000000 0.000000 0.000000 0.000000 0.000000 0.000000 10.000000 
Back_Bone 0.000000 0.000000 0.000000 0.000000 0.000000 0.000000 10.000000 
Head 0.000000 0.000000 0.000000 0.000000 0.000000 0.000000 10.000000 
Motor_Bone 0.000000 0.000000 0.000000 0.000000 0.000000 0.000000 10.000000 
Ping_Mechanism 0.000000 0.000000 0.000000 0.000000 0.000000 0.000000 10.000000 
BN_LookIK 0.000000 0.000000 0.000000 0.000000 0.000000 0.000000 10.000000 
bottomMouth 0.000000 0.000000 0.000000 0.000000 0.000000 0.000000 10.000000 
L_Mouth01 0.000000 0.000000 0.000000 0.000000 0.000000 0.000000 10.000000 
L_mouthFront 0.000000 0.000000 0.000000 0.000000 0.000000 0.000000 10.000000 
mouthGun 0.000000 0.000000 0.000000 0.000000 0.000000 0.000000 10.000000 
R_Mouth01 0.000000 0.000000 0.000000 0.000000 0.000000 0.000000 10.000000 
R_mouthFront 0.000000 0.000000 0.000000 0.000000 0.000000 0.000000 10.000000 
TopMouth 0.000000 0.000000 0.000000 0.000000 0.000000 0.000000 10.000000 
weapon_bone 0.000000 0.000000 0.000000 0.000000 0.000000 0.000000 10.000000 
#Beginning of Data. Separated by tabs
#Fr	Tx	Ty	Tz	Rx	Ry	Rz	SF
[Pinger_Root]
8 0.000000 0.000000 0.000000 -0.000075 -0.000000 -0.000020 0.000000
9 0.000000 0.000000 0.000000 -0.000075 -0.000000 -0.000020 0.000000
10 0.000000 0.000000 0.000000 -0.000075 -0.000000 -0.000020 0.000000
[Pelvis]
8 -160.556381 2162.120117 3870.117188 -101.198624 -60.906586 87.579475 4436.028320
9 -184.708557 2159.153564 3744.654053 -91.648941 -60.520218 75.298027 4326.487305
10 -200.360641 2137.860107 3642.168945 -82.123352 -59.935654 63.636341 4228.000000
[L_Hip]
8 5.766392 125.831482 872.656799 112.798569 -81.821297 173.346130 881.701050
9 5.766392 125.831482 872.656799 82.700401 -84.924950 -153.448013 881.701050
10 5.766392 125.831482 872.656799 38.860466 -85.923210 -106.294327 881.701050
[R_Hip]
8 5.765438 125.836372 -872.654907 16.374115 64.795532 97.827324 881.699829
9 5.765438 125.836372 -872.654907 -15.646529 68.241348 62.961800 881.699829
10 5.765438 125.836372 -872.654907 -47.186314 63.751621 29.335684 881.699829
[Rear_Leg01]
8 -192.298416 -925.602966 -0.001907 166.799377 9.127470 -161.441605 945.367432
9 -192.298416 -925.602966 -0.001907 168.273392 15.974853 -161.540466 945.367432
10 -192.298416 -925.602966 -0.001907 170.272308 22.290800 -160.698456 945.367432
[Spine1]
8 290.604584 5.007505 0.000477 6.546996 -5.492283 9.449368 290.647736
9 290.604584 5.007505 0.000477 6.321663 -11.378822 9.474052 290.647736
10 290.604584 5.007505 0.000477 5.681195 -17.055883 10.000448 290.647736
[L_Leg01]
8 761.932007 -0.002384 -0.069261 40.566978 -55.589020 -20.208864 761.932068
9 761.932007 -0.002384 -0.069261 49.971878 -59.005882 -37.234238 761.932068
10 761.932007 -0.002384 -0.069261 62.112560 -59.117630 -56.549713 761.932068
[L_Leg02]
8 1441.140503 -0.000954 -0.000715 8.480449 4.380847 -145.867706 1441.140503
9 1441.140503 -0.000954 -0.000715 8.256055 4.354309 -138.483017 1441.140503
10 1441.140503 -0.000954 -0.000715 7.782668 3.810313 -126.819550 1441.140503
[L_Leg03]
8 1686.963989 -0.000715 -0.000954 -0.137470 0.086380 146.877609 1686.963989
9 1686.963989 -0.000715 -0.000954 -0.138505 0.091687 147.346832 1686.963989
10 1686.963989 -0.000715 -0.000954 -0.133183 0.087100 146.283768 1686.963989
[L_Foot]
8 3041.570068 -30.715107 11.297464 5.013400 33.524040 66.722046 3041.746094
9 3041.570068 -30.715107 11.297464 5.951236 37.082352 65.944221 3041.746094
10 3041.570068 -30.715107 11.297464 6.084870 39.912636 62.736942 3041.746094
[L_Toe1_01]
8 -188.216690 -224.732346 -21.137953 94.115700 -1.626563 -179.630325 293.899567
9 -188.216690 -224.732346 -21.137953 94.115700 -1.626563 -179.630325 293.899567
10 -188.216690 -224.732346 -21.137953 94.115692 -1.626563 -179.630325 293.899567
[L_Toe2_01]
8 200.746536 -219.926590 148.838394 -98.201698 -27.889593 -34.220226 332.896027
9 200.746536 -219.926590 148.838394 -98.201691 -27.889345 -34.220528 332.896027
10 200.746536 -219.926590 148.838394 -98.201675 -27.889090 -34.220818 332.896027
[L_Toe3_01]
8 188.832520 -219.859131 -191.078659 -99.863655 29.449795 -64.657898 347.140900
9 188.832520 -219.859131 -191.078659 -99.863190 29.450066 -64.657814 347.140900
10 188.832520 -219.859131 -191.078659 -99.862740 29.450338 -64.657738 347.140900
[planeAlignerLeft]
8 0.812531 -811.448792 -0.314951 0.000000 -90.000000 -90.001900 811.449280
9 0.812531 -811.448792 -0.314951 0.000000 -90.000000 -90.001900 811.449280
10 0.812531 -811.448792 -0.314951 0.000000 -90.000000 -90.001900 811.449280
[L_Toe1_02]
8 413.761139 0.000477 0.000000 0.001661 0.070897 0.001661 413.761139
9 413.761139 0.000477 0.000000 0.001661 0.070897 0.001661 413.761139
10 413.761139 0.000477 0.000000 0.001661 0.070897 0.001661 413.761139
[L_Toe1_03]
8 464.317322 0.000358 -0.000089 0.001673 -0.448396 -0.003292 464.317322
9 464.317322 0.000358 -0.000089 0.001673 -0.448396 -0.003292 464.317322
10 464.317322 0.000358 -0.000089 0.001673 -0.448396 -0.003292 464.317322
[L_Toe2_02]
8 342.235809 -0.000477 0.000238 0.004684 -81.241302 0.004684 342.235809
9 342.235809 -0.000477 0.000238 0.004684 -81.238480 0.004684 342.235809
10 342.235809 -0.000477 0.000238 0.004684 -81.235611 0.004684 342.235809
[L_Toe2_03]
8 420.210846 -0.000715 0.000000 179.993271 42.301838 -179.999084 420.210846
9 420.210846 -0.000715 0.000000 179.993271 42.301838 -179.999084 420.210846
10 420.210846 -0.000715 0.000000 179.993271 42.301826 -179.999084 420.210846
[L_Toe3_02]
8 329.270111 0.000954 0.000000 0.004675 -84.679543 0.004675 329.270111
9 329.270111 0.000954 0.000000 0.004675 -84.682571 0.004675 329.270111
10 329.270111 0.000954 0.000000 0.004675 -84.685699 0.004675 329.270111
[L_Toe3_03]
8 439.137451 -0.001907 0.000954 179.993088 46.274670 -179.999390 439.137451
9 439.137451 -0.001907 0.000954 179.993088 46.274670 -179.999390 439.137451
10 439.137451 -0.001907 0.000954 179.993088 46.274670 -179.999390 439.137451
[planeLockWeightLeft]
8 -0.000954 0.000238 -0.000305 -0.011826 -0.004376 0.005620 0.001029
9 -0.000954 0.000238 -0.000305 -0.011826 -0.004376 0.005620 0.001029
10 -0.000954 0.000238 -0.000305 -0.011826 -0.004376 0.005620 0.001029
[R_Leg01]
8 761.455627 -0.001907 -0.000358 133.898819 -16.407898 48.376637 761.455688
9 761.455627 -0.001907 -0.000358 129.010605 -18.730146 57.675491 761.455688
10 761.455627 -0.001907 -0.000358 124.004051 -20.116415 68.005867 761.455688
[R_Leg02]
8 1441.140625 0.000000 -0.000238 -2.073303 -0.693659 -124.854141 1441.140625
9 1441.140625 0.000000 -0.000238 -2.282120 -0.910261 -126.031143 1441.140625
10 1441.140625 0.000000 -0.000238 -2.382290 -1.038888 -123.721596 1441.140625
[R_Leg03]
8 1686.963989 0.000954 0.001431 0.110399 -0.066738 139.853943 1686.963989
9 1686.963989 0.000954 0.001431 0.119821 -0.070718 142.449844 1686.963989
10 1686.963989 0.000954 0.001431 0.126607 -0.080219 144.008133 1686.963989
[R_Foot]
8 3041.560059 -30.531288 -11.204481 5.610813 -10.435468 65.797401 3041.734131
9 3041.560059 -30.531288 -11.204481 5.497858 -10.138532 63.999619 3041.734131
10 3041.560059 -30.531288 -11.204481 5.495512 -9.935426 60.678970 3041.734131
[planeAlignerRight]
8 -0.635147 -812.270569 -0.364304 0.000000 -89.960434 -90.005180 812.270874
9 -0.635147 -812.270569 -0.364304 0.000000 -89.960434 -90.005180 812.270874
10 -0.635147 -812.270569 -0.364304 0.000000 -89.960434 -90.005180 812.270874
[R_Toe1_01]
8 -188.383347 -224.864899 21.052242 77.366692 -4.272012 -176.102875 294.101532
9 -188.383347 -224.864899 21.052242 77.348862 -4.310564 -175.794876 294.101532
10 -188.383347 -224.864899 21.052242 77.330788 -4.349017 -175.486832 294.101532
[R_Toe2_01]
8 200.637817 -220.002121 -148.787384 -84.908112 32.316536 -46.775856 332.857574
9 200.637817 -220.002121 -148.787384 -84.846741 32.255039 -46.677391 332.857574
10 200.637817 -220.002121 -148.787384 -84.785507 32.193447 -46.579060 332.857574
[R_Toe3_01]
8 188.606735 -220.092957 191.126343 -71.263603 -17.044199 -68.092613 347.192566
9 188.606735 -220.092957 191.126343 -71.203476 -17.248903 -68.237144 347.192566
10 188.606735 -220.092957 191.126343 -71.142715 -17.453445 -68.382034 347.192566
[planeLockWeightRight]
8 -0.000477 0.000000 0.000000 -0.011823 -0.004379 -0.000027 0.000477
9 -0.000477 0.000000 0.000000 -0.011823 -0.004379 -0.000027 0.000477
10 -0.000477 0.000000 0.000000 -0.011823 -0.004379 -0.000027 0.000477
[R_Toe1_02]
8 413.762085 0.000477 -0.000119 0.001386 -25.693251 0.001386 413.762085
9 413.762085 0.000477 -0.000119 0.001386 -25.725725 0.001386 413.762085
10 413.762085 0.000477 -0.000119 0.001386 -25.758198 0.001386 413.762085
[R_Toe1_03]
8 464.317810 0.000000 0.001088 0.004625 60.597328 0.004625 464.317810
9 464.317810 0.000000 0.001088 0.004486 59.667686 0.004486 464.317810
10 464.317810 0.000000 0.001088 0.004356 58.738083 0.004356 464.317810
[R_Toe2_02]
8 342.234741 -0.000954 0.000238 -0.002336 -77.774818 -0.002336 342.234741
9 342.234741 -0.000954 0.000238 -0.002336 -77.903595 -0.002336 342.234741
10 342.234741 -0.000954 0.000238 -0.002336 -78.032356 -0.002336 342.234741
[R_Toe2_03]
8 420.210846 0.000715 -0.000268 -179.993484 76.119743 -179.997009 420.210846
9 420.210846 0.000715 -0.000268 -179.993729 75.370293 -179.997253 420.210846
10 420.210846 0.000715 -0.000268 -179.993896 74.759109 -179.997421 420.210846
[R_Toe3_02]
8 329.270355 -0.000477 -0.000954 0.001178 -80.560371 0.001178 329.270355
9 329.270355 -0.000477 -0.000954 0.001178 -80.610077 0.001178 329.270355
10 329.270355 -0.000477 -0.000954 0.001178 -80.659798 0.001178 329.270355
[R_Toe3_03]
8 439.137939 0.000238 0.001431 -179.996307 77.904747 -179.992798 439.137939
9 439.137939 0.000238 0.001431 -179.996368 77.739586 -179.992859 439.137939
10 439.137939 0.000238 0.001431 -179.996460 77.574440 -179.992935 439.137939
[Rear_Leg02]
8 1162.777710 -0.029802 0.005960 14.427172 9.354420 -36.694294 1162.777710
9 1162.777710 -0.029802 0.005960 14.844400 11.560690 -41.580906 1162.777710
10 1162.777710 -0.029802 0.005960 14.508280 13.507421 -46.662243 1162.777710
[Rear_Leg03]
8 607.192505 -0.013351 -0.073195 0.003394 0.005904 31.567116 607.192505
9 607.192505 -0.013351 -0.073195 0.003550 0.005814 34.600376 607.192505
10 607.192505 -0.013351 -0.073195 0.003701 0.005716 37.633633 607.192505
[Rear_Leg04]
8 995.874512 -0.020504 -0.011921 -0.023644 -0.006382 9.066673 995.874573
9 995.874512 -0.020504 -0.011921 -0.024117 -0.008098 12.662449 995.874573
10 995.874512 -0.020504 -0.011921 -0.024697 -0.009781 16.258221 995.874573
[Rear_Foot]
8 3096.176270 -0.067472 -0.041425 44.853786 71.720108 -101.121269 3096.176270
9 3096.176270 -0.067472 -0.041425 42.631733 69.488091 -103.894997 3096.176270
10 3096.176270 -0.067472 -0.041425 41.051598 68.001259 -106.216263 3096.176270
[planeAlignerCenter]
8 0.350077 0.966311 -838.790894 0.000009 0.000003 -179.999985 838.791565
9 0.350077 0.966311 -838.790894 0.000009 0.000003 -179.999985 838.791565
10 0.350077 0.966311 -838.790894 0.000009 0.000003 -179.999985 838.791565
[Rear_Toe1_01]
8 0.653352 83.966492 -371.173737 0.511540 24.006472 90.885353 380.553192
9 0.653352 83.966492 -371.173737 0.533112 23.642645 90.922356 380.553192
10 0.653352 83.966492 -371.173737 0.554367 23.278811 90.959137 380.553192
[Rear_Toe2_01]
8 178.200760 -294.826019 -362.060547 -8.552381 21.778172 -69.131989 499.765686
9 178.200760 -294.826019 -362.060547 -8.552032 21.417433 -69.267303 499.765686
10 178.200760 -294.826019 -362.060547 -8.540850 20.854048 -69.472992 499.765686
[Rear_Toe3_01]
8 -153.359680 -308.780914 -362.060852 3.909891 20.175634 -110.844086 499.952881
9 -153.359680 -308.780914 -362.060852 3.905876 19.681078 -110.745842 499.952881
10 -153.359680 -308.780914 -362.060852 3.895032 18.898205 -110.598656 499.952881
[planeLockWeightCenter]
8 -0.000062 0.000238 0.000000 -0.011814 -0.004373 -0.000015 0.000246
9 -0.000062 0.000238 0.000000 -0.011814 -0.004373 -0.000015 0.000246
10 -0.000062 0.000238 0.000000 -0.011814 -0.004373 -0.000015 0.000246
[Rear_Toe1_02]
8 379.707825 0.194073 0.000477 -0.003982 -32.340549 -0.003982 379.707855
9 379.707825 0.194073 0.000477 -0.005317 -32.165501 -0.005317 379.707855
10 379.707825 0.194073 0.000477 -0.006654 -31.990461 -0.006654 379.707855
[Rear_Toe1_03]
8 500.129700 0.165701 0.000119 -179.978729 86.626526 -179.982224 500.129761
9 500.129700 0.165701 0.000119 -179.984741 85.126808 -179.988235 500.129761
10 500.129700 0.165701 0.000119 -179.988449 83.280403 -179.991943 500.129761
[Rear_Toe2_02]
8 340.494507 0.000238 -0.000954 0.001213 -60.736118 0.001213 340.494507
9 340.494507 0.000238 -0.000954 0.001217 -59.262745 0.001217 340.494507
10 340.494507 0.000238 -0.000954 0.001223 -57.173931 0.001223 340.494507
[Rear_Toe2_03]
8 433.103577 0.000000 0.000238 0.004140 57.065098 0.004140 433.103546
9 433.103577 0.000000 0.000238 0.003921 55.170776 0.003921 433.103546
10 433.103577 0.000000 0.000238 0.003663 52.624134 0.003663 433.103546
[Rear_Toe3_02]
8 340.494141 -0.000358 -0.000477 -0.002434 -55.206085 -0.002434 340.494171
9 340.494141 -0.000358 -0.000477 -0.002447 -53.344326 -0.002447 340.494171
10 340.494141 -0.000358 -0.000477 -0.002466 -50.741081 -0.002466 340.494171
[Rear_Toe3_03]
8 433.103577 0.001431 -0.000238 0.000169 50.241688 -0.003549 433.103546
9 433.103577 0.001431 -0.000238 0.000265 48.104210 -0.003480 433.103546
10 433.103577 0.001431 -0.000238 0.000385 45.142223 -0.003398 433.103546
[Back_Bone]
8 1312.175781 -701.934692 0.000954 6.801955 -2.481712 -64.855476 1488.125488
9 1312.175781 -701.934692 0.000954 6.780438 -3.355164 -64.380997 1488.125488
10 1312.175781 -701.934692 0.000954 6.726382 -4.023396 -64.196251 1488.125488
[Head]
8 1406.159424 809.709290 0.001431 0.722975 -1.399023 5.400991 1622.625488
9 1406.159424 809.709290 0.001431 0.494561 -1.490173 9.790643 1622.625488
10 1406.159424 809.709290 0.001431 0.255581 -1.552817 14.511818 1622.625488
[Motor_Bone]
8 1158.364380 -417.834747 0.000477 -3.984554 25.373020 -92.852280 1231.419434
9 1158.364380 -417.834747 0.000477 -7.113494 20.362043 -110.845001 1231.419434
10 1158.364380 -417.834747 0.000477 -9.848761 14.238252 -126.734383 1231.419434
[Ping_Mechanism]
8 1310.597534 -543.678589 3.278135 0.000103 -0.000053 82.120995 1418.895020
9 1312.497437 -540.559326 30.998533 0.000103 -0.000053 82.120995 1419.793945
10 1314.639771 -531.947021 57.104797 0.000103 -0.000053 82.120995 1419.333130
[BN_LookIK]
8 193.241119 1380.371704 -0.002861 0.000000 89.965736 -31.038179 1393.832153
9 193.241119 1380.371704 -0.002861 0.000000 89.965736 -31.038179 1393.832153
10 193.241119 1380.371704 -0.002861 0.000000 89.965736 -31.038179 1393.832153
[bottomMouth]
8 -435.092926 615.759399 -0.000954 -0.000022 0.000016 73.527184 753.966492
9 -435.092926 615.759399 -0.000954 -0.000022 0.000016 73.527184 753.966492
10 -435.092926 615.759399 -0.000954 -0.000022 0.000016 73.527184 753.966492
[L_Mouth01]
8 554.440979 7.658243 838.222046 150.204178 23.759130 109.605339 1005.027161
9 554.440979 7.658243 838.222046 150.204178 23.759130 109.605339 1005.027161
10 554.440979 7.658243 838.222046 150.204178 23.759130 109.605339 1005.027161
[L_mouthFront]
8 551.629089 934.514771 339.150421 0.000081 2.804060 79.119301 1136.941284
9 551.629089 934.514771 339.150421 0.000081 2.804060 79.119301 1136.941284
10 551.629089 934.514771 339.150421 0.000081 2.804060 79.119301 1136.941284
[mouthGun]
8 55.332661 1627.420898 0.000000 0.000023 0.000009 -11.038128 1628.361328
9 55.332661 1627.420898 0.000000 0.000023 0.000009 -11.038128 1628.361328
10 55.332661 1627.420898 0.000000 0.000023 0.000009 -11.038128 1628.361328
[R_Mouth01]
8 554.442383 7.659197 -838.223938 29.795891 -23.759109 109.605331 1005.029541
9 554.442383 7.659197 -838.223938 29.795891 -23.759109 109.605331 1005.029541
10 554.442383 7.659197 -838.223938 29.795891 -23.759109 109.605331 1005.029541
[R_mouthFront]
8 551.629089 934.514282 -339.151367 0.000029 -2.803930 79.119133 1136.941162
9 551.629089 934.514282 -339.151367 0.000029 -2.803930 79.119133 1136.941162
10 551.629089 934.514282 -339.151367 0.000029 -2.803930 79.119133 1136.941162
[TopMouth]
8 461.269867 -56.106091 -0.008583 -0.000059 -0.000268 92.025169 464.669525
9 461.269867 -56.106091 -0.008583 -0.000059 -0.000268 92.025169 464.669525
10 461.269867 -56.106091 -0.008583 -0.000059 -0.000268 92.025169 464.669525
[weapon_bone]
8 -987.239868 1448.372803 0.001431 0.000000 89.965736 -31.038221 1752.833740
9 -987.239868 1448.372803 0.001431 0.000000 89.965736 -31.038221 1752.833740
10 -987.239868 1448.372803 0.001431 0.000000 89.965736 -31.038221 1752.833740
